:SAMPLES-PER-SECOND 24
:FULLY-SPECIFIED
:DEGREES
452
root  -5.4252 36.3818 -23.8354 -175.11 -17.2974 172.022
RightUpLeg  -40.4217 -14.7187 -12.9799
RightLeg  40.5702 9.7808 8.60148
RightFoot  3.43855 -0.917234 7.24414
RightToes  -1.46215e-006 3.27826e-006 1.63871e-007
Spine  5.54779 5.80864 12.0884
Spine1  10.6609 13.3983 -24.0139
HEad  -16.3242 -32.7702 14.4996
LeftShoulder1  2.69631 -4.39066 -28.0896
LeftArm  19.8093 22.4082 -30.8122
LeftForeArm  126.427 -69.2365 -148.762
LeftHand  0.356353 13.769 5.74433
RightShoulder  1.18279 2.82968 11.5761
RightArm  -17.8355 49.0202 6.46606
RightForeArm  9.66522 30.5311 6.1371
RightHand  -0.831963 -2.62784 -34.2302
LeftUpLeg  -3.7161 16.2524 13.5695
LeftLeg  33.2768 -1.88001 -0.960877
LeftFoot  -16.9785 -0.676848 -15.7201
LeftToes  1.24762e-006 1.46925e-008 1.29056e-009
453
root  -5.60201 36.3139 -24.5157 -174.742 -10.0949 174.038
RightUpLeg  -42.159 -7.6963 -10.6832
RightLeg  40.4287 9.91271 8.67459
RightFoot  3.09313 -0.876938 7.08335
RightToes  -1.46215e-006 3.27826e-006 1.63871e-007
Spine  4.10469 4.67261 12.0934
Spine1  8.74592 10.8208 -21.2401
HEad  -13.4971 -23.633 8.74772
LeftShoulder1  2.76848 -4.65237 -27.8762
LeftArm  18.5896 18.8345 -33.4621
LeftForeArm  140.272 -63.4101 -157.299
LeftHand  0.758587 15.3757 9.48605
RightShoulder  1.73802 3.71976 17.4644
RightArm  -13.5888 48.7719 20.6773
RightForeArm  7.35868 50.6685 13.2183
RightHand  -0.735132 -2.95748 -34.3534
LeftUpLeg  4.13547 12.4398 15.7021
LeftLeg  28.6996 -3.16507 -1.53122
LeftFoot  -17.008 -0.812132 -18.3162
LeftToes  1.24762e-006 1.46925e-008 1.29056e-009
454
root  -5.79592 36.1544 -25.1633 -174.642 -2.00888 176.867
RightUpLeg  -43.7542 0.393288 -8.04721
RightLeg  40.8235 9.76778 8.65828
RightFoot  1.83886 -0.744716 6.53978
RightToes  -1.46215e-006 3.27826e-006 1.63871e-007
Spine  1.22835 1.58216 8.20752
Spine1  9.02861 4.86355 -12.075
HEad  -10.8187 -7.09339 0.867916
LeftShoulder1  2.72673 -5.17343 -25.2799
LeftArm  15.0079 15.4216 -34.4737
LeftForeArm  148.54 -57.142 -162.796
LeftHand  0.917425 13.132 14.2915
RightShoulder  2.4127 4.6258 23.5455
RightArm  5.66818 45.5275 42.167
RightForeArm  11.6419 66.2631 25.8062
RightHand  -0.867539 -2.45294 -33.6588
LeftUpLeg  14.3389 9.5242 16.3951
LeftLeg  20.527 1.01408 0.67482
LeftFoot  -15.7848 -0.65412 -19.1617
LeftToes  1.24762e-006 1.46925e-008 1.29056e-009
455
root  -6.07342 35.8049 -25.6349 -174.562 5.30916 178.919
RightUpLeg  -45.4232 2.88716 -4.72486
RightLeg  43.0396 12.2544 11.734
RightFoot  1.03785 -0.573836 5.34595
RightToes  -1.46215e-006 3.27826e-006 1.63871e-007
Spine  0.392223 -3.44925 -0.376597
Spine1  8.7142 -4.18219 2.2524
HEad  -10.4971 13.9489 -8.98103
LeftShoulder1  2.53588 -5.62221 -21.4473
LeftArm  9.89501 10.5045 -27.4806
LeftForeArm  151.331 -51.6234 -165.944
LeftHand  0.68176 12.0385 12.4661
RightShoulder  2.6664 4.95221 25.4919
RightArm  22.0911 30.3557 54.9023
RightForeArm  34.0239 76.8977 58.4844
RightHand  -0.637998 -2.99299 -30.4884
LeftUpLeg  24.1416 6.64338 13.3788
LeftLeg  10.5631 10.8129 1.81011
LeftFoot  -14.453 -0.513899 -22.0041
LeftToes  1.24762e-006 1.46925e-008 1.29056e-009
456
root  -6.37521 35.2797 -25.7509 -173.946 8.91861 -179.942
RightUpLeg  -47.883 1.30847 -2.01655
RightLeg  46.3323 14.4625 15.3979
RightFoot  1.64853 -0.385334 3.48169
RightToes  -1.46215e-006 3.27826e-006 1.63871e-007
Spine  2.26716 -7.79 -9.10745
Spine1  6.93454 -11.9568 15.6494
HEad  -12.5676 29.544 -16.3698
LeftShoulder1  2.06551 -5.35349 -16.62
LeftArm  0.905583 -2.93085 -16.2106
LeftForeArm  157.049 -57.572 -163.217
LeftHand  -0.074774 10.5691 -0.362481
RightShoulder  2.89998 5.31052 26.9079
RightArm  25.0552 8.1477 46.5776
RightForeArm  76.1566 76.4161 119.52
RightHand  -0.175341 -4.61115 -25.1916
LeftUpLeg  28.8723 5.13813 10.522
LeftLeg  3.60204 17.4174 1.07712
LeftFoot  -16.1625 -0.987551 -25.3558
LeftToes  1.24762e-006 1.46925e-008 1.29056e-009
457
root  -6.65331 34.8417 -25.5029 -173.437 7.76418 -179.126
RightUpLeg  -50.0082 -0.672931 -0.914352
RightLeg  48.4679 13.8848 15.9138
RightFoot  1.99884 -0.159928 1.47836
RightToes  -1.46215e-006 3.27826e-006 1.63871e-007
Spine  3.52976 -9.53917 -13.162
Spine1  7.21099 -15.4765 21.5548
HEad  -13.382 33.5731 -16.7971
LeftShoulder1  1.23395 -4.01568 -8.95884
LeftArm  -10.056 -33.0263 -11.9043
LeftForeArm  57.2446 -71.7713 -43.0602
LeftHand  -0.0663943 -1.50564 -0.387604
RightShoulder  3.32084 5.84927 29.586
RightArm  19.7094 -16.563 29.8826
RightForeArm  77.6303 69.5326 143.808
RightHand  0.727836 -9.34693 -20.8836
LeftUpLeg  28.7849 5.37989 11.7654
LeftLeg  2.19212 16.7167 0.609708
LeftFoot  -20.4112 -1.9855 -26.1921
LeftToes  1.24762e-006 1.46925e-008 1.29056e-009
458
root  -6.97813 34.4917 -25.1049 -173.893 6.01613 -178.772
RightUpLeg  -50.997 -1.65196 -1.04164
RightLeg  49.7584 12.6027 15.1678
RightFoot  1.99351 -0.0710444 0.726216
RightToes  -1.46215e-006 3.27826e-006 1.63871e-007
Spine  5.03506 -10.1092 -13.124
Spine1  8.29945 -16.5103 21.2682
HEad  -15.2088 33.0059 -17.0504
LeftShoulder1  0.716718 -2.42561 -4.18211
LeftArm  -28.888 -61.8212 -1.66339
LeftForeArm  33.3686 -10.328 -4.04367
LeftHand  -0.383491 -1.24534 7.22489
RightShoulder  3.67853 6.27696 31.726
RightArm  16.9305 -36.2128 20.9182
RightForeArm  61.2119 67.6123 146.786
RightHand  1.85467 -13.7072 -25.6163
LeftUpLeg  28.0843 5.66412 12.7899
LeftLeg  3.31476 14.9184 1.01471
LeftFoot  -25.0823 -2.92036 -25.1272
LeftToes  1.24762e-006 1.46925e-008 1.29056e-009
459
root  -7.30536 34.3075 -24.7815 -174.298 7.81969 -179.09
RightUpLeg  -51.6697 -0.465998 -1.63661
RightLeg  49.9615 12.8249 15.5318
RightFoot  3.21724 -0.109672 1.02878
RightToes  -1.46215e-006 3.27826e-006 1.63871e-007
Spine  6.83366 -10.7852 -12.2608
Spine1  8.41729 -17.1089 19.9219
HEad  -19.5687 34.9861 -22.2981
LeftShoulder1  0.572382 -1.41365 -3.63296
LeftArm  -57.6364 -66.3855 20.044
LeftForeArm  40.0326 7.83934 -10.5236
LeftHand  -0.149229 2.2063 5.12338
RightShoulder  3.80276 6.50263 32.1178
RightArm  19.3609 -43.5252 19.501
RightForeArm  55.7515 68.6916 144.703
RightHand  2.04531 -12.7581 -31.3492
LeftUpLeg  28.1139 5.56455 10.7903
LeftLeg  4.35479 16.6221 1.11131
LeftFoot  -27.7466 -3.36713 -24.1839
LeftToes  1.24762e-006 1.46925e-008 1.29056e-009
460
root  -7.5609 34.4185 -24.521 -174.278 10.6266 -179.735
RightUpLeg  -51.7564 1.05657 -2.32545
RightLeg  48.2605 13.8623 15.784
RightFoot  4.85051 -0.165366 1.39557
RightToes  -1.46215e-006 3.27826e-006 1.63871e-007
Spine  7.08822 -10.5747 -11.4862
Spine1  8.6609 -16.6737 18.8652
HEad  -22.6891 38.0829 -27.7987
LeftShoulder1  0.517815 -0.755105 -4.20621
LeftArm  -50.0928 -62.837 22.0659
LeftForeArm  34.6528 5.9164 -12.2821
LeftHand  -0.26161 -1.33306 4.66535
RightShoulder  3.82477 6.58204 32.0351
RightArm  20.6017 -42.8451 20.417
RightForeArm  59.2228 68.6481 144.792
RightHand  1.88772 -11.4778 -34.673
LeftUpLeg  27.6207 5.76905 8.61186
LeftLeg  5.28603 19.1633 0.526019
LeftFoot  -27.6286 -3.23237 -23.4464
LeftToes  1.24762e-006 1.46925e-008 1.29056e-009
